<svg width="50" height="50" viewBox="0 0 50 50" fill="none" xmlns="http://www.w3.org/2000/svg">
<g clip-path="url(#clip0_622_1694)">
<path d="M25 0C11.2152 0 0 11.2152 0 25C0 38.7848 11.2152 50 25 50C38.7848 50 50 38.7848 50 25C50 11.2152 38.7848 0 25 0ZM25 46.875C12.9379 46.875 3.125 37.0621 3.125 25C3.125 12.9379 12.9379 3.125 25 3.125C37.0621 3.125 46.875 12.9379 46.875 25C46.875 37.0621 37.0621 46.875 25 46.875ZM35.4797 23.8953C36.0902 24.5059 36.0902 25.4945 35.4797 26.1047L27.6672 33.9172C27.3621 34.2223 26.9621 34.375 26.5625 34.375C26.1629 34.375 25.7629 34.2223 25.4578 33.9172C24.8473 33.3066 24.8473 32.318 25.4578 31.7078L30.6031 26.5625H15.625C14.7621 26.5625 14.0625 25.8637 14.0625 25C14.0625 24.1363 14.7621 23.4375 15.625 23.4375H30.6031L25.4578 18.2922C24.8473 17.6816 24.8473 16.693 25.4578 16.0828C26.0684 15.4727 27.057 15.4723 27.6672 16.0828L35.4797 23.8953Z" fill="url(#paint0_linear_622_1694)"/>
</g>
<defs>
<linearGradient id="paint0_linear_622_1694" x1="25" y1="0" x2="25" y2="50" gradientUnits="userSpaceOnUse">
<stop stop-color="#9FCEFF"/>
<stop offset="1" stop-color="#5FACFD"/>
</linearGradient>
<clipPath id="clip0_622_1694">
<rect width="50" height="50" fill="white"/>
</clipPath>
</defs>
</svg>
